<?xml version="1.0" encoding="UTF-8" standalone="no"?>
<!-- Created with Inkscape (http://www.inkscape.org/) -->

<svg
   xmlns:dc="http://purl.org/dc/elements/1.1/"
   xmlns:cc="http://creativecommons.org/ns#"
   xmlns:rdf="http://www.w3.org/1999/02/22-rdf-syntax-ns#"
   xmlns:svg="http://www.w3.org/2000/svg"
   xmlns="http://www.w3.org/2000/svg"
   xmlns:sodipodi="http://sodipodi.sourceforge.net/DTD/sodipodi-0.dtd"
   xmlns:inkscape="http://www.inkscape.org/namespaces/inkscape"
   id="svg2"
   version="1.1"
   inkscape:version="0.48.4 r9939"
   width="270.45499"
   height="91.877502"
   xml:space="preserve"
   sodipodi:docname="IPCortexLogo-Invert.svg"><metadata
     id="metadata8"><rdf:RDF><cc:Work
         rdf:about=""><dc:format>image/svg+xml</dc:format><dc:type
           rdf:resource="http://purl.org/dc/dcmitype/StillImage" /><dc:title /></cc:Work></rdf:RDF></metadata><defs
     id="defs6"><clipPath
       clipPathUnits="userSpaceOnUse"
       id="clipPath16"><path
         d="m 0,93.543 250,0 L 250,0 0,0 0,93.543 z"
         id="path18"
         inkscape:connector-curvature="0" /></clipPath></defs><sodipodi:namedview
     pagecolor="#ffffff"
     bordercolor="#666666"
     borderopacity="1"
     objecttolerance="10"
     gridtolerance="10"
     guidetolerance="10"
     inkscape:pageopacity="0"
     inkscape:pageshadow="2"
     inkscape:window-width="1920"
     inkscape:window-height="1025"
     id="namedview4"
     showgrid="false"
     inkscape:zoom="5.2608"
     inkscape:cx="76.58785"
     inkscape:cy="18.571224"
     inkscape:window-x="0"
     inkscape:window-y="0"
     inkscape:window-maximized="1"
     inkscape:current-layer="g12"
     fit-margin-top="0"
     fit-margin-left="0"
     fit-margin-right="0"
     fit-margin-bottom="0" /><g
     id="g10"
     inkscape:groupmode="layer"
     inkscape:label="IPCortexLogo [Converted]"
     transform="matrix(1.25,0,0,-1.25,-24.0075,109.71375)"><g
       id="g12"><g
         id="g2995"><path
           d="m 118.145,33.469 c 4.44,0 7.44,3 7.44,7.26 0,4.26 -3,7.32 -7.44,7.32 -4.44,0 -7.5,-3.06 -7.5,-7.32 0,-4.26 3.06,-7.26 7.5,-7.26 m 0,23.46 c 9.84,0 16.74,-6.84 16.74,-16.26 0,-9.42 -6.9,-16.26 -16.74,-16.26 -9.9,0 -16.8,6.9 -16.8,16.26 0,9.36 6.9,16.26 16.8,16.26"
           style="fill:#918f90;fill-opacity:1;fill-rule:nonzero;stroke:none"
           id="path20"
           inkscape:connector-curvature="0" /><path
           d="m 137.853,55.549 8.219,1.02 0,-5.58 c 1.38,3.84 4.261,4.736 8.521,4.736 0.479,0 1.019,0 1.559,-0.06 l -2.639,-8.001 -0.42,0 c -4.141,0 -6.12,-2.852 -6.12,-6.933 l 0,-14.882 -9.12,-1.14 0,30.84 z"
           style="fill:#918f90;fill-opacity:1;fill-rule:nonzero;stroke:none"
           id="path22"
           inkscape:connector-curvature="0" /><path
           d="m 155.987,55.669 3.24,0 0,6.3 9.12,3.66 0,-9.96 5.639,0 0,-7.98 -5.639,0 0,-9.12 c 0,-3.84 1.559,-4.98 6.059,-4.98 0.42,0 0.96,0.06 1.5,0.06 l -2.639,-9.12 -0.781,0 c -8.939,0 -13.259,3.96 -13.259,12.18 l 0,10.98 -5.871,0 2.631,7.98 z"
           style="fill:#918f90;fill-opacity:1;fill-rule:nonzero;stroke:none"
           id="path24"
           inkscape:connector-curvature="0" /><path
           d="m 110.163,36.434 -2.183,8.004 -12.394,-9.051 -0.001,0.002 c -0.02,-0.016 -0.038,-0.03 -0.058,-0.045 l -0.048,-0.035 c -0.236,-0.172 -0.475,-0.355 -0.714,-0.54 -0.514,-0.373 -1.005,-0.682 -1.519,-0.88 -1.141,-0.48 -2.46,-0.78 -3.721,-0.78 -4.44,0 -7.5,3.12 -7.5,7.62 0,5.1 3.301,8.4 7.801,8.4 2.219,0 4.139,-0.78 5.759,-2.22 l 4.5,6.3 c -2.759,2.46 -6.239,3.72 -10.56,3.72 -10.08,0 -16.799,-6.78 -16.799,-16.26 0,-9.48 6.899,-16.26 16.319,-16.26 4.213,0 7.853,1.244 10.845,3.654 l 0.062,0.01 10.211,8.361 z"
           style="fill:#918f90;fill-opacity:1;fill-rule:nonzero;stroke:none"
           id="path26"
           inkscape:connector-curvature="0" /><path
           d="m 185.354,41.51 c 0,4.439 3.24,7.559 7.56,7.559 1.26,0 2.399,-0.36 3.48,-0.96 l -11.04,-7.08 0,0.481 z m 28.342,-17.114 -0.389,8.623 -20.097,0 c -0.179,0.018 -0.342,0.03 -0.476,0.03 -1.98,0 -3.66,0.6 -5.22,1.92 l 20.04,12.9 c -3.9,6.12 -8.64,9.06 -14.82,9.06 -10.08,0 -16.74,-6.84 -16.74,-16.26 0,-9.48 6.9,-16.26 16.319,-16.26 0.263,0 0.776,-0.032 1.039,-0.021 l 20.344,0.008 z"
           style="fill:#918f90;fill-opacity:1;fill-rule:nonzero;stroke:none"
           id="path28"
           inkscape:connector-curvature="0" /><path
           d="m 21.907,55.909 9.179,1.02 0,-31.2 -9.179,-1.02 0,31.2 z"
           style="fill:#ffffff;fill-opacity:1;fill-rule:nonzero;stroke:none"
           id="path30"
           inkscape:connector-curvature="0" /><path
           d="m 53.706,32.929 c 4.38,0 7.5,3.18 7.5,7.8 0,4.621 -3.06,7.8 -7.5,7.8 -4.44,0 -7.5,-3.179 -7.5,-7.8 0,-4.62 3.06,-7.8 7.5,-7.8 m -16.56,-18.66 0,41.7 8.52,0.84 0,-4.38 c 2.1,2.76 5.1,4.2 9,4.2 9.42,0 15.66,-6.3 15.66,-15.659 0,-9.661 -6.3,-16.261 -15.84,-16.261 -3.54,0 -6.24,1.02 -8.22,3.12 l 0,-12.42 -9.12,-1.14 z"
           style="fill:#ffffff;fill-opacity:1;fill-rule:nonzero;stroke:none"
           id="path32"
           inkscape:connector-curvature="0" /><path
           d="m 33.927,69.702 c 0,-4.065 -3.296,-7.361 -7.361,-7.361 -4.064,0 -7.36,3.296 -7.36,7.361 0,4.065 3.296,7.36 7.36,7.36 4.065,0 7.361,-3.295 7.361,-7.36"
           style="fill:#ffffff;fill-opacity:1;fill-rule:nonzero;stroke:none"
           id="path34"
           inkscape:connector-curvature="0" /><path
           d="m 219.77,33.925 -6.046,-9.492 -9.315,2.533 10.2,14.279 5.521,6.421 6.12,9.84 8.699,-3 -9.779,-13.2 -5.4,-7.381 z"
           style="fill:#918f90;fill-opacity:1;fill-rule:nonzero;stroke:none"
           id="path36"
           inkscape:connector-curvature="0" /><path
           d="m 216.171,55.786 c -14.981,15.237 -48.108,31.985 -102.31,31.985 -32.818,0 -58.644,-6.164 -74.78,-11.461 l -0.017,0.042 c -1.904,3.362 -5.508,5.635 -9.647,5.635 -1.857,0 -3.604,-0.462 -5.141,-1.268 0.713,0.143 1.45,0.22 2.205,0.22 6.122,0 11.086,-4.962 11.086,-11.085 0,-4.265 -2.413,-7.961 -5.944,-9.816 5.065,1.024 8.879,5.498 8.879,10.865 0,0.901 -0.121,1.772 -0.324,2.61 15.935,5.216 41.369,11.258 73.683,11.258 53.047,0 77.362,-16.769 90.532,-28.985 15.935,-14.781 21.446,-36.791 21.478,-36.952 l 9.699,3.233 c -0.137,0.688 -6.004,20.093 -19.399,33.719"
           style="fill:#918f90;fill-opacity:1;fill-rule:nonzero;stroke:none"
           id="path38"
           inkscape:connector-curvature="0" /></g></g></g></svg>